<?xml version="1.0" encoding="UTF-8"?>
<svg id="Layer_1" xmlns="http://www.w3.org/2000/svg" version="1.1" viewBox="0 0 800 800">
  <!-- Generator: Adobe Illustrator 29.8.3, SVG Export Plug-In . SVG Version: 2.1.1 Build 3)  -->
  <defs>
    <style>
      .st0 {
        fill: #fff;
      }
    </style>
  </defs>
  <circle class="st0" cx="400" cy="400" r="400"/>
  <path d="M203.8,261.5c-9.9,0-18.9,6-22.8,15.1-59.8,3.4-103.2,9.2-103,13.7.2,4.5,43.2,6.4,102.6,4.7,2.1,5.6,6,10.2,11.2,13.1h-9.6v17.7h-11.8c-3.1,0-5.6,2.5-5.6,5.6,0,0,0,0,0,0v12.6c0,3.1,2.5,5.6,5.6,5.6h79.3c20,4.7,22.2,11.9,37.2,25-2.4,13.6-6.1,28.5-8.9,41.3v109.3c0,7.4,6,13.5,13.5,13.5s13.5-6,13.5-13.5v-52.9c-.3-44.4,6.9-62.4,31.6-96.8l6.2-2.9c0,26.7,18.5,28.3,44.5,34.3h-19.6c-6,0-10.8,4.8-10.8,10.8v64.4c0,6,4.8,10.8,10.8,10.8h64.7c6,0,10.8-4.8,10.8-10.8v-64.4c0-6-4.8-10.8-10.8-10.8h-19.5c26-6,44.5-7.6,44.5-34.3l6.2,2.9c31.3,32.4,31.6,54.4,31.6,96.8v52.9c0,7.4,6,13.5,13.5,13.5s13.5-6,13.5-13.5v-109.3c-3.3-14.1-6.8-28.9-10.2-43.5,14.2-13.9,20-17,38.4-22.7h79.4c3.1,0,5.6-2.5,5.6-5.6h0v-12.6c0-3.1-2.5-5.6-5.6-5.6h-11.8v-17.7h-9.6c5.2-2.9,9.1-7.5,11.2-13.1,59.4,1.8,102.4-.2,102.6-4.7.2-4.5-43.2-10.2-103-13.7-5.4-12.6-19.9-18.5-32.5-13.1-5.2,2.2-9.5,6.2-12.2,11.2-59.9-1.8-103.7.1-104,4.6-.2,4.5,42.6,10.2,101.9,13.6,1.8,6.4,6,11.9,11.8,15.1h-9.6v17.7c-60.8-.1-107.8-30.7-174.4-31.9-64.4,1.4-118.4,31.9-174.4,31.9v-17.7h-9.6c5.8-3.2,10.1-8.7,11.8-15.1,59.3-3.4,102.1-9.1,101.9-13.6-.3-4.5-44-6.4-104-4.6-4.3-8.1-12.8-13.2-22-13.1h0ZM400,422.6c15.1,0,27.5,12.4,27.5,27.5s-12.4,27.5-27.5,27.5-27.6-12.4-27.6-27.5,12.4-27.5,27.6-27.5ZM400,438.7c-6.4,0-11.4,5-11.4,11.4s5,11.4,11.4,11.4,11.4-5,11.4-11.4-5-11.4-11.4-11.4h0Z"/>
</svg>